<?xml version="1.0" encoding="utf-8"?>
<!-- Generator: Adobe Illustrator 22.0.1, SVG Export Plug-In . SVG Version: 6.00 Build 0)  -->
<svg version="1.1" id="Layer_1" xmlns="http://www.w3.org/2000/svg" xmlns:xlink="http://www.w3.org/1999/xlink" x="0px" y="0px"
	 viewBox="0 0 200 200" style="enable-background:new 0 0 200 200;" xml:space="preserve">
<style type="text/css">
	.st0{fill:#FFD800;}
</style>
<g>
	<g>
		<circle class="st0" cx="100" cy="100" r="39"/>
	</g>
	<g>
		<path d="M49.5,93.2l-3-0.4C50,66.1,73.1,46,100,46c24.6,0,46.1,16.6,52.3,40.4l-2.9,0.8C143.5,64.7,123.2,49,100,49
			C74.5,49,52.8,68,49.5,93.2z"/>
	</g>
	<g>
		<polygon points="143.4,87.4 157.7,84.4 152,93 		"/>
	</g>
	<g>
		<path d="M100,154c-24.6,0-46.1-16.6-52.3-40.4l2.9-0.8C56.5,135.3,76.8,151,100,151c25.5,0,47.2-19,50.5-44.2l3,0.4
			C150,133.9,126.9,154,100,154z"/>
	</g>
	<g>
		<polygon points="56.6,112.6 42.3,115.6 48,107 		"/>
	</g>
</g>
</svg>
