<?xml version="1.0" encoding="utf-8"?>
<!-- Generator: Adobe Illustrator 22.0.1, SVG Export Plug-In . SVG Version: 6.00 Build 0)  -->
<svg version="1.1" id="Layer_1" xmlns="http://www.w3.org/2000/svg" xmlns:xlink="http://www.w3.org/1999/xlink" x="0px" y="0px"
	 viewBox="0 0 200 200" style="enable-background:new 0 0 200 200;" xml:space="preserve">
<style type="text/css">
	.st0{fill:#FFD800;}
</style>
<g>
	<circle class="st0" cx="100" cy="105" r="39"/>
	<g>
		<path d="M133.5,73.6l15.2-15.2l-2.1-2.1l-15.2,15.2C132.2,72.1,132.9,72.8,133.5,73.6z"/>
		<path d="M68.6,71.5L53.4,56.2l-2.1,2.1l15.2,15.2C67.1,72.8,67.8,72.1,68.6,71.5z"/>
		<path d="M100,59c0.5,0,1,0,1.5,0V37.6h-3V59C99,59,99.5,59,100,59z"/>
		<path d="M54,105c0-0.5,0-1,0-1.5H32.6v3H54C54,106,54,105.5,54,105z"/>
		<path d="M131.4,138.5l15.2,15.2l2.1-2.1l-15.2-15.2C132.9,137.2,132.2,137.9,131.4,138.5z"/>
		<path d="M146,103.5c0,0.5,0,1,0,1.5s0,1,0,1.5h21.5v-3H146z"/>
		<path d="M66.5,136.4l-15.2,15.2l2.1,2.1l15.2-15.2C67.8,137.9,67.1,137.2,66.5,136.4z"/>
	</g>
	<g>
		<circle class="st0" cx="100.5" cy="143.5" r="19.5"/>
	</g>
</g>
</svg>
