<?xml version="1.0" encoding="utf-8"?>
<!-- Generator: Adobe Illustrator 22.0.1, SVG Export Plug-In . SVG Version: 6.00 Build 0)  -->
<svg version="1.1" id="Layer_1" xmlns="http://www.w3.org/2000/svg" xmlns:xlink="http://www.w3.org/1999/xlink" x="0px" y="0px"
	 viewBox="0 0 200 200" style="enable-background:new 0 0 200 200;" xml:space="preserve">
<style type="text/css">
	.st0{fill:#FFD800;}
</style>
<g>
	<g>
		<circle class="st0" cx="103" cy="103" r="39"/>
	</g>
	<path d="M195.3,102.2c-20.2-31.8-54.7-50.8-92.3-50.8s-72.1,19-92.3,50.8l-0.5,0.8l0.5,0.8c20.2,31.8,54.7,50.8,92.3,50.8
		s72.1-19,92.3-50.8l0.5-0.8L195.3,102.2z M103,54.4c35.6,0,68.4,17.5,88.2,47.1H130c-0.5,0-1,0.3-1.3,0.8l-6.4,11.1l-9.9-28.9
		c-0.2-0.6-0.8-1-1.4-1c0,0,0,0,0,0c-0.6,0-1.2,0.4-1.4,1.1l-8.7,27.8L90.4,84.5c-0.2-0.6-0.8-1-1.4-1c0,0,0,0,0,0
		c-0.6,0-1.2,0.4-1.4,1l-6.6,17H14.8C34.6,72,67.4,54.4,103,54.4z M103,151.6c-35.6,0-68.4-17.5-88.2-47.1H82c0.6,0,1.2-0.4,1.4-1
		L89,89.2l10.6,28.3c0.2,0.6,0.8,1,1.4,1c0.6,0,1.2-0.4,1.4-1.1l8.6-27.6l9.5,27.7c0.2,0.6,0.7,1,1.3,1c0,0,0.1,0,0.1,0
		c0.5,0,1-0.3,1.3-0.8l7.6-13.2h60.3C171.4,134,138.6,151.6,103,151.6z"/>
</g>
</svg>
