<?xml version="1.0" encoding="utf-8"?>
<!-- Generator: Adobe Illustrator 22.0.1, SVG Export Plug-In . SVG Version: 6.00 Build 0)  -->
<svg version="1.1" id="Layer_1" xmlns="http://www.w3.org/2000/svg" xmlns:xlink="http://www.w3.org/1999/xlink" x="0px" y="0px"
	 viewBox="0 0 590 296" style="enable-background:new 0 0 590 296;" xml:space="preserve">
<style type="text/css">
	.st0{fill:#FAFA0A;}
</style>
<polygon class="st0" points="153.7,102.1 162.9,102.1 161.6,74.1 125.4,102.1 138.4,102.1 86.1,158.4 118.2,158.4 84.8,205.9 
	141,205.9 162.1,137.4 138.6,137.4 "/>
<g>
	<path d="M230.7,136.5h-14.1c1.4-3.8-1.5-5.3-3.6-5.4c-2.5-0.1-4.7,1-5.4,3.9c-1.9,8.6,23,6.2,19.1,26.1
		c-2.2,11.3-11,16.1-22.6,15.6c-11.3-0.6-18.6-7.8-16.2-19.4h14.3c-1.3,4.3,1.3,5.9,4.1,6c3.2,0.1,5.4-1.4,6-4.4
		c1.5-7.9-22.4-6.8-18.8-25.7c2-10.6,10.6-15.8,21.6-15.4C226.1,118.1,233.2,125.3,230.7,136.5z"/>
	<path d="M236.7,131c6.7,0,9-2.6,10.6-10.3h9.5l-2,9.5h6.7l-2.7,12.2h-6.6l-4,18.2c-0.6,3.1,1,4.4,6,3.5l-2.6,12.2
		c-15.6,1.5-19.3-5.2-16.8-17.2l3.6-16.6h-4.3L236.7,131z"/>
	<path d="M278.1,175.8l0.7-3.8c0,0-3.2,4.5-10.1,4.5c-6.1,0-12-4.4-10.3-13.2c3-15.6,24.5-12.8,25.9-19.5c0.4-1.9-0.6-3.2-2.8-3.2
		c-2,0-4.2,0.9-4.9,4.2h-13.1c2.4-11,8.2-15.3,19.2-15.3c10.3,0,17.2,4.9,14.6,17.1c-0.2,1.4-6.2,29.3-6.2,29.3H278.1z M281.6,155.4
		c-1.6,2.4-8.4,2.3-9.3,6.6c-0.6,2.6,0.8,3.3,2.6,3.3c2,0,5-1.5,5.9-5.6c0-0.1,0-0.1,0-0.2L281.6,155.4z"/>
	<path d="M329.3,143.2c-6.5-0.6-10.4,1.6-11.9,8.8l-5,23.7h-13.7l9.7-45.5h12.9l-0.8,4c0,0,3.2-5.5,11.7-4.5
		C332.2,129.7,329.3,143.2,329.3,143.2z"/>
	<path d="M335.6,131c6.7,0,9-2.6,10.6-10.3h9.5l-2,9.5h6.7l-2.7,12.2h-6.6l-4,18.2c-0.6,3.1,1,4.4,6,3.5l-2.6,12.2
		c-15.6,1.5-19.3-5.2-16.8-17.2l3.6-16.6h-4.3L335.6,131z"/>
	<path d="M386.3,130.2H400l-6.1,28.4c-2.5,11.8-8.5,18-19.7,18c-10.9,0-17-6.9-14.7-18l6.1-28.4c0,0,13.6,0,13.7,0l-6.6,30.4
		c-0.6,3.1,1.1,3.8,2.7,3.8c1.5,0,3.7-0.7,4.4-3.8L386.3,130.2z"/>
	<path d="M407.7,130.2h12.9l-0.8,3.9c0,0,2.9-4.5,9.2-4.5c7.3,0,12.3,4,9.8,15.8l-3.3,15.2c-2.5,11.8-7.5,15.8-14.8,15.8
		c-6.3,0-8.3-4.5-8.3-4.5l-4.2,19.8h-13.6L407.7,130.2z M424.8,146.1c0.6-3.1-1.1-3.8-2.7-3.8c-1.5,0-3.6,0.7-4.3,3.8l-2.9,13.9
		c-0.6,3.1,1.1,3.8,2.6,3.8c1.5,0,3.7-0.7,4.4-3.8L424.8,146.1z"/>
	<path d="M455.2,175.8h-14.4l12.2-57.2h14.4L455.2,175.8z"/>
	<path d="M503.9,175.8h-13.7l-5-25.2l-5.3,25.2h-14.5l12.2-57.2h13.7l4.9,25.4l5.4-25.4h14.5L503.9,175.8z"/>
</g>
</svg>
