<?xml version="1.0" encoding="utf-8"?>
<!-- Generator: Adobe Illustrator 22.0.1, SVG Export Plug-In . SVG Version: 6.00 Build 0)  -->
<svg version="1.1" id="Layer_1" xmlns="http://www.w3.org/2000/svg" xmlns:xlink="http://www.w3.org/1999/xlink" x="0px" y="0px"
	 viewBox="0 0 398 360" style="enable-background:new 0 0 398 360;" xml:space="preserve">
<style type="text/css">
	.st0{fill:#2E3192;}
	.st1{fill:#FCAF17;}
	.st2{fill:#F26522;}
</style>
<g>
	<g>
		<path class="st0" d="M166.2,159.7c8,0,14.5-6.4,14.5-14.4c0-8-6.5-14.5-14.5-14.5c-8,0-14.4,6.5-14.4,14.5
			C151.8,153.4,158.2,159.7,166.2,159.7z"/>
		<path class="st0" d="M207.3,215.9c-5.9,0-11.2,3.7-13.3,8.9h26.5C218.2,219.7,213.2,215.9,207.3,215.9z"/>
		<path class="st0" d="M283.9,244.9c8,0,14.5-6.4,14.5-14.4c0-8-6.5-14.5-14.5-14.5c-8,0-14.5,6.5-14.5,14.5
			C269.4,238.5,275.9,244.9,283.9,244.9z"/>
		<path class="st0" d="M303.6,137.7c-4.2,0-7.6,3.4-7.6,7.6s3.4,7.6,7.6,7.6s7.6-3.4,7.6-7.6S307.8,137.7,303.6,137.7z"/>
		<path class="st0" d="M239.1,117.2c0-1.5-0.3-3-0.8-4.4c1.6-3,2.4-6.4,2.4-10.1c0-12.1-9.9-22-22-22c-10.1,0-18.5,6.8-21.1,16.1
			c-0.3,0-0.6,0-0.9,0h-16.1c-4.4,0-8.3,2.3-10.5,5.9c-1.3-0.1-2.6-0.2-4-0.2c-9,0-17.3,2.8-24.2,7.6c-0.6-0.5-1.2-1-1.9-1.5
			l-13.9-8.6c-2-1.2-4.3-1.8-6.5-1.8c-4.1,0-8.2,2.1-10.5,5.8l-13.9,22.5l-13.9-22.5c-2.3-3.8-6.4-5.8-10.5-5.8
			c-2.2,0-4.4,0.6-6.5,1.8l-13.9,8.6c-2.8,1.7-4.8,4.5-5.5,7.7s-0.2,6.5,1.5,9.3l38,61.5l-10.8,4.8c-6.2,2.8-9,10-6.3,16.2
			l27.4,62.4c2,4.5,6.4,7.4,11.3,7.4c0,0,0,0,0,0c4.9,0,9.3-2.9,11.3-7.4l8.8-20.1l8.8,20.1c2,4.5,6.4,7.4,11.3,7.4c0,0,0,0,0,0
			c4.9,0,9.3-2.9,11.3-7.4l8.6-19.6c5.3,17.6,21.7,30.5,41,30.5h2.4c6.8,0,12.3-5.5,12.3-12.3v-15.8h7.9c0.3,2.7,1.4,5.4,3.5,7.5
			l11.2,11.3c2.3,2.3,5.4,3.6,8.7,3.6c0,0,0,0,0,0c3.3,0,6.4-1.3,8.7-3.6l3.1-3.1c5.8,2.8,12.2,4.3,18.8,4.3
			c23.7,0,42.9-19.2,42.9-42.9c0-23.6-19.2-42.8-42.9-42.8c-0.7,0-1.4,0-2.2,0.1v-5.5c0-0.1,0-0.1,0-0.2c1.2-0.1,2.4-0.3,3.6-0.7
			c4.2-1.5,7.2-5.2,8-9.5c3.1,1.2,6.4,1.9,9.9,1.9c2.2,1.8,4.9,3,8,3h8.5c6.8,0,12.3-5.5,12.3-12.3v-38.1c0-6.8-5.5-12.3-12.3-12.3
			h-8.5c-3.1,0-5.9,1.1-8.1,3c-5.2,0.1-10,1.6-14.2,4.1c-2.1-1.7-4.8-2.8-7.8-2.8h-8.5c-2.2,0-4.3,0.6-6.1,1.6L261,113
			c-2.4-2.9-5.9-4.5-9.5-4.5c-1.4,0-2.8,0.2-4.2,0.7c-4.9,1.8-8.1,6.4-8.1,11.6L239.1,117.2z M251.5,120.8l21.2,25.6v-16h6.7
			c-2.7,4.3-4.2,9.4-4.2,14.8c0,6.5,2.2,12.6,6,17.4v7L260,144.1v16h-8.5V120.8z M226.8,173.4h-16.1v-56.2h16.1V173.4z M218.8,93.1
			c5.3,0,9.6,4.2,9.6,9.6c0,5.3-4.3,9.6-9.6,9.6c-5.4,0-9.6-4.3-9.6-9.6C209.1,97.3,213.4,93.1,218.8,93.1z M180.7,118.5v-9.5h16.1
			v72.4h-16.1v-9.4c-4.2,2.4-9.1,3.8-14.5,3.8c-16.9,0-30.5-13.6-30.5-30.5c0-2.8,0.4-5.5,1.1-8.1l7.3-11.7c0.4-0.7,0.8-1.5,1.1-2.3
			c5.5-5.2,12.9-8.4,21-8.4C171.6,114.8,176.4,116.1,180.7,118.5z M70.9,110.4l24.4,39.5l24.4-39.5l13.1,8.1
			c-3.2,4-5.7,8.6-7.3,13.6l-30.2,48.8L57,119L70.9,110.4z M146.3,265.5l-20.1-45.8l-20.1,45.8l-27.4-62.4l14.5-6.5l12.9,29.5
			l20.1-45.8l20.1,45.8l12.9-29.5l14.5,6.5l-0.7,1.5c-4,5.2-6.7,11.4-7.9,18.1L146.3,265.5z M193,240.9c1.2,6.8,7.2,12.1,14.2,12.1
			h2.4v16h-2.4c-16.9,0-30.5-13.6-30.5-30.5v-8.1c0-1.4,0.1-2.8,0.3-4.1l6.8-15.4c5.6-6.7,14-11,23.4-11c16.9,0,30.6,13.6,30.6,30.5
			v8.6l-1.9,1.9H193z M283.9,199.9c16.9,0,30.6,13.6,30.6,30.5S300.8,261,283.9,261c-7.8,0-15-3-20.4-7.8l-10.2,10.2l-11-11
			c3.4-1.3,6-4.1,7.1-7.6l3.8-3.8v-58.8h16.1v21.5C273.6,201.3,278.5,199.9,283.9,199.9z M319.7,164.3h-8.5v-4.9
			c-2.2,1.3-4.8,2-7.6,2c-3.8,0-7.3-1.3-10.1-3.6v-25c2.8-2.2,6.3-3.6,10.1-3.6c2.8,0,5.4,0.7,7.6,2v-5h8.5V164.3z"/>
	</g>
	<g>
		<g>
			<path class="st1" d="M95.3,149.9l24.4-39.5l13.9,8.6l-38.3,61.9L57,119l13.9-8.6L95.3,149.9z"/>
			<path class="st1" d="M196.8,109.1v72.4h-16.1v-9.4c-4.2,2.4-9.1,3.8-14.5,3.8c-16.9,0-30.5-13.6-30.5-30.5s13.6-30.6,30.5-30.6
				c5.4,0,10.2,1.4,14.5,3.8v-9.5H196.8z M151.8,145.4c0,8,6.4,14.4,14.4,14.4c8,0,14.5-6.4,14.5-14.4c0-8-6.5-14.5-14.5-14.5
				C158.2,130.9,151.8,137.3,151.8,145.4z"/>
			<path class="st1" d="M218.8,112.4c-5.4,0-9.6-4.3-9.6-9.6c0-5.4,4.2-9.6,9.6-9.6c5.3,0,9.6,4.2,9.6,9.6
				C228.4,108,224.1,112.4,218.8,112.4z M226.8,173.4h-16.1v-56.2h16.1V173.4z"/>
		</g>
		<g>
			<g>
				<path class="st1" d="M106.2,226.2l20.1-45.8l20.1,45.8l12.9-29.5l14.5,6.5l-27.4,62.4l-20.1-45.8l-20.1,45.8l-27.4-62.4
					l14.5-6.5L106.2,226.2z"/>
				<path class="st1" d="M207.2,253h2.4v16h-2.4c-16.9,0-30.5-13.6-30.5-30.5v-8.1c0-16.9,13.6-30.5,30.5-30.5s30.6,13.6,30.6,30.5
					v10.5H193C194.1,247.8,200.2,253,207.2,253z M207.3,215.9c-5.9,0-11.2,3.7-13.3,8.9h26.5C218.2,219.7,213.2,215.9,207.3,215.9z"
					/>
				<path class="st1" d="M283.9,199.9c16.9,0,30.6,13.6,30.6,30.5S300.8,261,283.9,261c-7.8,0-15-3-20.4-7.8l-10.2,10.2l-11.2-11.3
					l11.2-11.2v-58.8h16.1v21.5C273.6,201.3,278.5,199.9,283.9,199.9z M269.4,230.5c0,8,6.5,14.4,14.5,14.4c8,0,14.5-6.4,14.5-14.4
					c0-8-6.5-14.5-14.5-14.5C275.9,216,269.4,222.5,269.4,230.5z"/>
			</g>
		</g>
	</g>
	<g>
		<path class="st2" d="M281.2,169.7L260,144.1v16h-8.5v-39.2l21.2,25.6v-16h8.5V169.7z"/>
		<path class="st2" d="M319.7,126.2v38.1h-8.5v-4.9c-2.2,1.3-4.8,2-7.6,2c-8.9,0-16.1-7.2-16.1-16.1s7.2-16.1,16.1-16.1
			c2.8,0,5.4,0.7,7.6,2v-5H319.7z M296,145.3c0,4.2,3.4,7.6,7.6,7.6c4.2,0,7.6-3.4,7.6-7.6s-3.4-7.6-7.6-7.6
			C299.4,137.7,296,141.1,296,145.3z"/>
	</g>
</g>
</svg>
